<?xml version="1.0" encoding="utf-8"?>
<svg viewBox="0 0 1110 1110" xmlns="http://www.w3.org/2000/svg">
  <g fill="none" stroke="#cc95c7" stroke-width="2">
    <path d="M119 989h897l20-1c8 0 14-4 16-13 2-6-2-12-5-18L565 122a1 1 77 0 0-1 0h-14c-4 0-6 2-8 6L81 927c-8 14-20 30-25 44a1 1 48 0 0 0 1q3 10 11 16a2 2-25 0 0 1 0l51 1" vector-effect="non-scaling-stroke"/>
    <path d="M555 172 173 833l-15 26h1l4-5 487-517a1 1 52 0 0 0-1l-94-164h-1m112 195L166 898l-1 1 1 1c202-118 404-234 606-350a1 1 60 0 0 1-1L668 367h-1m123 211h-1L207 913h1l681-161a1 1-21 0 0 0-1l-99-172v-1M280 955h726l1-1-100-172a1 1-21 0 0-1 0L177 954q-6 1 0 1h103" vector-effect="non-scaling-stroke"/>
  </g>
  <path d="M0 0h1110v1110H0V0Zm119 989h897l20-1c8 0 14-4 16-13 2-6-2-12-5-18L565 122a1 1 77 0 0-1 0h-14c-4 0-6 2-8 6L81 927c-8 14-20 30-25 44a1 1 48 0 0 0 1q3 10 11 16a2 2-25 0 0 1 0l51 1Z" style="fill: rgb(77, 61, 222);"/>
  <path d="M1016 989H119l-51-1a2 2-25 0 1-1 0q-8-6-11-16a1 1 48 0 1 0-1c5-14 17-30 25-44l461-799c2-4 4-6 8-6h14a1 1 77 0 1 1 0l482 835c3 6 7 12 5 18-2 9-8 13-16 13l-20 1ZM555 172 173 833l-15 26h1l4-5 487-517a1 1 52 0 0 0-1l-94-164h-1Zm112 195L166 898l-1 1 1 1c202-118 404-234 606-350a1 1 60 0 0 1-1L668 367h-1Zm123 211h-1L207 913h1l681-161a1 1-21 0 0 0-1l-99-172v-1ZM280 955h726l1-1-100-172a1 1-21 0 0-1 0L177 954q-6 1 0 1h103Z" style="fill: rgb(252, 252, 252);"/>
  <path d="M555 172h1l94 164a1 1 52 0 1 0 1L163 854l-4 5h-1l15-26 382-661ZM166 898l501-531h1l105 182a1 1 60 0 1-1 1C570 666 368 782 166 900l-1-1 1-1Zm624-320v1l99 172a1 1-21 0 1 0 1L208 913h-1l582-335h1ZM280 955H177q-6 0 0-1l729-172a1 1-21 0 1 1 0l100 172-1 1H280Z" style="fill: rgb(77, 61, 222);"/>
</svg>
